REM DIRINDEX 1\2,1\3,1\4
REM DIRNAME cjc031,folder01,folder02,folder03
TITLE ""
FILE "CD1-15.mp3" MP3
  TRACK 01 AUDIO
    TITLE "2:cjc031_0856"
    INDEX 01 00:00:00
  TRACK 02 AUDIO
    TITLE "3:cjc031_0857"
    INDEX 01 00:01:07
  TRACK 03 AUDIO
    TITLE "2:cjc031_0858"
    INDEX 01 00:02:24
  TRACK 04 AUDIO
    TITLE "3:cjc031_0859"
    INDEX 01 00:03:57
  TRACK 05 AUDIO
    TITLE "2:cjc031_0860"
    INDEX 01 00:05:32
  TRACK 06 AUDIO
    TITLE "3:cjc031_0861"
    INDEX 01 00:06:57
  TRACK 07 AUDIO
    TITLE "2:cjc031_0862"
    INDEX 01 00:08:44
  TRACK 08 AUDIO
    TITLE "3:cjc031_0863"
    INDEX 01 00:09:73
  TRACK 09 AUDIO
    TITLE "2:cjc031_0864"
    INDEX 01 00:11:58
  TRACK 10 AUDIO
    TITLE "3:cjc031_0865"
    INDEX 01 00:12:69
  TRACK 11 AUDIO
    TITLE "2:cjc031_0866"
    INDEX 01 00:14:37
  TRACK 12 AUDIO
    TITLE "3:cjc031_0867"
    INDEX 01 00:15:62
  TRACK 13 AUDIO
    TITLE "2:cjc031_0868"
    INDEX 01 00:17:39
  TRACK 14 AUDIO
    TITLE "3:cjc031_0869"
    INDEX 01 00:18:72
  TRACK 15 AUDIO
    TITLE "2:cjc031_0870"
    INDEX 01 00:20:41
  TRACK 16 AUDIO
    TITLE "3:cjc031_0871"
    INDEX 01 00:21:72
  TRACK 17 AUDIO
    TITLE "2:cjc031_0872"
    INDEX 01 00:24:41
  TRACK 18 AUDIO
    TITLE "3:cjc031_0873"
    INDEX 01 00:25:72
  TRACK 19 AUDIO
    TITLE "2:cjc031_0874"
    INDEX 01 00:27:61
  TRACK 20 AUDIO
    TITLE "3:cjc031_0875"
    INDEX 01 00:29:21
  TRACK 21 AUDIO
    TITLE "2:cjc031_0876"
    INDEX 01 00:30:63
  TRACK 22 AUDIO
    TITLE "3:cjc031_0877"
    INDEX 01 00:32:07
  TRACK 23 AUDIO
    TITLE "2:cjc031_0878"
    INDEX 01 00:33:48
  TRACK 24 AUDIO
    TITLE "3:cjc031_0879"
    INDEX 01 00:35:00
  TRACK 25 AUDIO
    TITLE "2:cjc031_0880"
    INDEX 01 00:36:25
  TRACK 26 AUDIO
    TITLE "3:cjc031_0881"
    INDEX 01 00:37:34
  TRACK 27 AUDIO
    TITLE "2:cjc031_0882"
    INDEX 01 00:38:67
  TRACK 28 AUDIO
    TITLE "3:cjc031_0883"
    INDEX 01 00:40:17
  TRACK 29 AUDIO
    TITLE "2:cjc031_0884"
    INDEX 01 00:42:41
  TRACK 30 AUDIO
    TITLE "3:cjc031_0885"
    INDEX 01 00:44:01
  TRACK 31 AUDIO
    TITLE "2:cjc031_0886"
    INDEX 01 00:45:47
  TRACK 32 AUDIO
    TITLE "3:cjc031_0887"
    INDEX 01 00:47:01
  TRACK 33 AUDIO
    TITLE "2:cjc031_0888"
    INDEX 01 00:49:02
  TRACK 34 AUDIO
    TITLE "3:cjc031_0889"
    INDEX 01 00:50:01
  TRACK 35 AUDIO
    TITLE "2:cjc031_0890"
    INDEX 01 00:51:40
  TRACK 36 AUDIO
    TITLE "3:cjc031_0891"
    INDEX 01 00:53:00
  TRACK 37 AUDIO
    TITLE "2:cjc031_0892"
    INDEX 01 00:54:64
  TRACK 38 AUDIO
    TITLE "3:cjc031_0893"
    INDEX 01 00:56:24
  TRACK 39 AUDIO
    TITLE "2:cjc031_0894"
    INDEX 01 00:57:56
  TRACK 40 AUDIO
    TITLE "3:cjc031_0895"
    INDEX 01 00:58:69
  TRACK 41 AUDIO
    TITLE "2:cjc031_0896"
    INDEX 01 01:00:10
  TRACK 42 AUDIO
    TITLE "3:cjc031_0897"
    INDEX 01 01:01:48
  TRACK 43 AUDIO
    TITLE "2:cjc031_0898"
    INDEX 01 01:03:18
  TRACK 44 AUDIO
    TITLE "3:cjc031_0899"
    INDEX 01 01:04:52
  TRACK 45 AUDIO
    TITLE "2:cjc031_0900"
    INDEX 01 01:06:43
  TRACK 46 AUDIO
    TITLE "3:cjc031_0901"
    INDEX 01 01:07:64
  TRACK 47 AUDIO
    TITLE "2:cjc031_0902"
    INDEX 01 01:09:40
  TRACK 48 AUDIO
    TITLE "3:cjc031_0903"
    INDEX 01 01:10:55
  TRACK 49 AUDIO
    TITLE "2:cjc031_0904"
    INDEX 01 01:11:66
  TRACK 50 AUDIO
    TITLE "3:cjc031_0905"
    INDEX 01 01:13:20
  TRACK 51 AUDIO
    TITLE "2:cjc031_0906"
    INDEX 01 01:14:65
  TRACK 52 AUDIO
    TITLE "3:cjc031_0907"
    INDEX 01 01:16:03
  TRACK 53 AUDIO
    TITLE "2:cjc031_0908"
    INDEX 01 01:17:33
  TRACK 54 AUDIO
    TITLE "3:cjc031_0909"
    INDEX 01 01:18:49
  TRACK 55 AUDIO
    TITLE "2:cjc031_0910"
    INDEX 01 01:20:18
  TRACK 56 AUDIO
    TITLE "3:cjc031_0911"
    INDEX 01 01:21:29
  TRACK 57 AUDIO
    TITLE "2:cjc031_0912"
    INDEX 01 01:22:48
  TRACK 58 AUDIO
    TITLE "3:cjc031_0913"
    INDEX 01 01:24:00
  TRACK 59 AUDIO
    TITLE "2:cjc031_0914"
    INDEX 01 01:25:53
  TRACK 60 AUDIO
    TITLE "3:cjc031_0915"
    INDEX 01 01:27:03
  TRACK 61 AUDIO
    TITLE "2:cjc031_0916"
    INDEX 01 01:28:33
  TRACK 62 AUDIO
    TITLE "3:cjc031_0917"
    INDEX 01 01:29:50
  TRACK 63 AUDIO
    TITLE "2:cjc031_0918"
    INDEX 01 01:31:00
  TRACK 64 AUDIO
    TITLE "3:cjc031_0919"
    INDEX 01 01:32:06
  TRACK 65 AUDIO
    TITLE "2:cjc031_0920"
    INDEX 01 01:33:23
  TRACK 66 AUDIO
    TITLE "3:cjc031_0921"
    INDEX 01 01:34:40
  TRACK 67 AUDIO
    TITLE "2:cjc031_0922"
    INDEX 01 01:36:05
  TRACK 68 AUDIO
    TITLE "3:cjc031_0923"
    INDEX 01 01:37:36
  TRACK 69 AUDIO
    TITLE "2:cjc031_0924"
    INDEX 01 01:38:67
  TRACK 70 AUDIO
    TITLE "3:cjc031_0925"
    INDEX 01 01:40:17
  TRACK 71 AUDIO
    TITLE "2:cjc031_0926"
    INDEX 01 01:41:56
  TRACK 72 AUDIO
    TITLE "3:cjc031_0927"
    INDEX 01 01:43:15
  TRACK 73 AUDIO
    TITLE "2:cjc031_0928"
    INDEX 01 01:44:44
  TRACK 74 AUDIO
    TITLE "3:cjc031_0929"
    INDEX 01 01:45:65
  TRACK 75 AUDIO
    TITLE "2:cjc031_0930"
    INDEX 01 01:47:11
  TRACK 76 AUDIO
    TITLE "3:cjc031_0931"
    INDEX 01 01:48:26
  TRACK 77 AUDIO
    TITLE "2:cjc031_0932"
    INDEX 01 01:49:63
  TRACK 78 AUDIO
    TITLE "3:cjc031_0933"
    INDEX 01 01:51:19
  TRACK 79 AUDIO
    TITLE "2:cjc031_0934"
    INDEX 01 01:52:61
  TRACK 80 AUDIO
    TITLE "3:cjc031_0935"
    INDEX 01 01:53:72
  TRACK 81 AUDIO
    TITLE "0:"
    INDEX 01 01:55:18
